{
  "accessors": [
    {
      "bufferView": 2,
      "componentType": 5126,
      "count": 322,
      "max": [
        423.1536865234375,
        662.9036254882813,
        631.5380859375
      ],
      "min": [
        -423.1536865234375,
        451.1830749511719,
        -526.9679565429688
      ],
      "type": "VEC3"
    },
    {
      "bufferView": 2,
      "byteOffset": 3864,
      "componentType": 5126,
      "count": 322,
      "max": [
        0.9955206513404846,
        0.999295175075531,
        1.0
      ],
      "min": [
        -0.9955199360847473,
        -0.9995023608207703,
        -1.0
      ],
      "type": "VEC3"
    },
    {
      "bufferView": 3,
      "componentType": 5126,
      "count": 322,
      "max": [
        1.0,
        0.9957685470581055,
        1.0,
        1.0
      ],
      "min": [
        -1.0,
        -0.9718858599662781,
        -0.9999997615814209,
        -1.0
      ],
      "type": "VEC4"
    },
    {
      "bufferView": 1,
      "componentType": 5126,
      "count": 322,
      "max": [
        1.3486237525939941,
        1.1303019523620605
      ],
      "min": [
        -0.505856454372406,
        -0.33763405680656433
      ],
      "type": "VEC2"
    },
    {
      "bufferView": 0,
      "componentType": 5125,
      "count": 1188,
      "type": "SCALAR"
    },
    {
      "bufferView": 2,
      "byteOffset": 7728,
      "componentType": 5126,
      "count": 75,
      "max": [
        354.55926513671875,
        631.8468017578125,
        792.0369262695313
      ],
      "min": [
        -354.55926513671875,
        -6.1679182052612305,
        -484.38916015625
      ],
      "type": "VEC3"
    },
    {
      "bufferView": 2,
      "byteOffset": 8628,
      "componentType": 5126,
      "count": 75,
      "max": [
        1.0,
        6.755799404345453e-07,
        1.0
      ],
      "min": [
        -1.0,
        -2.5889733024087036e-07,
        -1.0
      ],
      "type": "VEC3"
    },
    {
      "bufferView": 3,
      "byteOffset": 5152,
      "componentType": 5126,
      "count": 75,
      "max": [
        1.0,
        2.3339950985246105e-06,
        1.0,
        1.0
      ],
      "min": [
        -1.0,
        -0.005537142977118492,
        -1.0,
        -1.0
      ],
      "type": "VEC4"
    },
    {
      "bufferView": 1,
      "byteOffset": 2576,
      "componentType": 5126,
      "count": 75,
      "max": [
        2.2541513442993164,
        1.60007643699646
      ],
      "min": [
        -1.4210666418075562,
        -0.47039175033569336
      ],
      "type": "VEC2"
    },
    {
      "bufferView": 0,
      "byteOffset": 4752,
      "componentType": 5125,
      "count": 231,
      "type": "SCALAR"
    },
    {
      "bufferView": 2,
      "byteOffset": 9528,
      "componentType": 5126,
      "count": 2900,
      "max": [
        396.9473876953125,
        654.7701416015625,
        811.4342651367188
      ],
      "min": [
        -396.9473876953125,
        -18.0585994720459,
        -510.03656005859375
      ],
      "type": "VEC3"
    },
    {
      "bufferView": 2,
      "byteOffset": 44328,
      "componentType": 5126,
      "count": 2900,
      "max": [
        1.0,
        1.0,
        1.0
      ],
      "min": [
        -1.0,
        -1.0,
        -1.0
      ],
      "type": "VEC3"
    },
    {
      "bufferView": 3,
      "byteOffset": 6352,
      "componentType": 5126,
      "count": 2900,
      "max": [
        1.0,
        1.0,
        1.0,
        1.0
      ],
      "min": [
        -1.0,
        -1.0,
        -1.0,
        -1.0
      ],
      "type": "VEC4"
    },
    {
      "bufferView": 1,
      "byteOffset": 3176,
      "componentType": 5126,
      "count": 2900,
      "max": [
        2.577427625656128,
        1.4563000202178955
      ],
      "min": [
        -2.0023579597473145,
        -0.627813458442688
      ],
      "type": "VEC2"
    },
    {
      "bufferView": 1,
      "byteOffset": 26376,
      "componentType": 5126,
      "count": 2900,
      "max": [
        2.577427625656128,
        1.4563000202178955
      ],
      "min": [
        -2.0023579597473145,
        -0.627813458442688
      ],
      "type": "VEC2"
    },
    {
      "bufferView": 0,
      "byteOffset": 5676,
      "componentType": 5125,
      "count": 7293,
      "type": "SCALAR"
    },
    {
      "bufferView": 2,
      "byteOffset": 79128,
      "componentType": 5126,
      "count": 4177,
      "max": [
        356.4079895019531,
        469.3136291503906,
        537.6234130859375
      ],
      "min": [
        -398.8809509277344,
        173.1977996826172,
        -434.52044677734375
      ],
      "type": "VEC3"
    },
    {
      "bufferView": 2,
      "byteOffset": 129252,
      "componentType": 5126,
      "count": 4177,
      "max": [
        1.0,
        1.0,
        1.0
      ],
      "min": [
        -1.0,
        -1.0,
        -1.0
      ],
      "type": "VEC3"
    },
    {
      "bufferView": 3,
      "byteOffset": 52752,
      "componentType": 5126,
      "count": 4177,
      "max": [
        1.0,
        1.0,
        1.0,
        1.0
      ],
      "min": [
        -1.0,
        -1.0,
        -1.0,
        -1.0
      ],
      "type": "VEC4"
    },
    {
      "bufferView": 1,
      "byteOffset": 49576,
      "componentType": 5126,
      "count": 4177,
      "max": [
        0.9821889400482178,
        0.982189953327179
      ],
      "min": [
        0.01781141757965088,
        -0.002193152904510498
      ],
      "type": "VEC2"
    },
    {
      "bufferView": 0,
      "byteOffset": 34848,
      "componentType": 5125,
      "count": 7008,
      "type": "SCALAR"
    },
    {
      "bufferView": 2,
      "byteOffset": 179376,
      "componentType": 5126,
      "count": 654,
      "max": [
        360.6258850097656,
        173.6189727783203,
        813.3173828125
      ],
      "min": [
        -360.6258850097656,
        6.766163349151611,
        404.12835693359375
      ],
      "type": "VEC3"
    },
    {
      "bufferView": 2,
      "byteOffset": 187224,
      "componentType": 5126,
      "count": 654,
      "max": [
        0.9824444651603699,
        0.999997079372406,
        0.9824403524398804
      ],
      "min": [
        -0.9824432730674744,
        -0.9999990463256836,
        -0.8785920143127441
      ],
      "type": "VEC3"
    },
    {
      "bufferView": 3,
      "byteOffset": 119584,
      "componentType": 5126,
      "count": 654,
      "max": [
        1.0,
        0.9824562668800354,
        1.0,
        1.0
      ],
      "min": [
        -0.9999998211860657,
        -0.889356255531311,
        -1.0,
        1.0
      ],
      "type": "VEC4"
    },
    {
      "bufferView": 1,
      "byteOffset": 82992,
      "componentType": 5126,
      "count": 654,
      "max": [
        0.9998945593833923,
        1.3147447109222412
      ],
      "min": [
        0.04830043017864227,
        -0.31128445267677307
      ],
      "type": "VEC2"
    },
    {
      "bufferView": 0,
      "byteOffset": 62880,
      "componentType": 5125,
      "count": 2208,
      "type": "SCALAR"
    },
    {
      "bufferView": 2,
      "byteOffset": 195072,
      "componentType": 5126,
      "count": 14,
      "max": [
        340.023681640625,
        131.32919311523438,
        565.2474365234375
      ],
      "min": [
        -340.023681640625,
        -0.8391828536987305,
        404.12835693359375
      ],
      "type": "VEC3"
    },
    {
      "bufferView": 2,
      "byteOffset": 195240,
      "componentType": 5126,
      "count": 14,
      "max": [
        1.0,
        0.0,
        1.0
      ],
      "min": [
        -1.0,
        0.0,
        0.0
      ],
      "type": "VEC3"
    },
    {
      "bufferView": 3,
      "byteOffset": 130048,
      "componentType": 5126,
      "count": 14,
      "max": [
        0.7071069478988647,
        -0.7071066498756409,
        0.7071068286895752,
        1.0
      ],
      "min": [
        0.0,
        -0.7071070075035095,
        -0.7071069478988647,
        1.0
      ],
      "type": "VEC4"
    },
    {
      "bufferView": 1,
      "byteOffset": 88224,
      "componentType": 5126,
      "count": 14,
      "max": [
        4.351996898651123,
        4.786031723022461
      ],
      "min": [
        -4.220066547393799,
        -3.78603196144104
      ],
      "type": "VEC2"
    },
    {
      "bufferView": 0,
      "byteOffset": 71712,
      "componentType": 5125,
      "count": 24,
      "type": "SCALAR"
    },
    {
      "bufferView": 2,
      "byteOffset": 195408,
      "componentType": 5126,
      "count": 123,
      "max": [
        417.72705078125,
        637.9915161132813,
        805.2461547851563
      ],
      "min": [
        -417.72705078125,
        -6.741113185882568,
        -518.6375732421875
      ],
      "type": "VEC3"
    },
    {
      "bufferView": 2,
      "byteOffset": 196884,
      "componentType": 5126,
      "count": 123,
      "max": [
        1.0,
        0.9268537163734436,
        1.0
      ],
      "min": [
        -1.0,
        -8.662279071813828e-08,
        -0.0012014181120321155
      ],
      "type": "VEC3"
    },
    {
      "bufferView": 1,
      "byteOffset": 88336,
      "componentType": 5126,
      "count": 123,
      "max": [
        1.2241238355636597,
        1.0231883525848389
      ],
      "min": [
        -0.221501424908638,
        0.001968681812286377
      ],
      "type": "VEC2"
    },
    {
      "bufferView": 0,
      "byteOffset": 71808,
      "componentType": 5125,
      "count": 246,
      "type": "SCALAR"
    }
  ],
  "asset": {
    "extras": {
      "author": "spaceparmesan (https://sketchfab.com/spaceparmesan)",
      "license": "CC-BY-4.0 (http://creativecommons.org/licenses/by/4.0/)",
      "source": "https://sketchfab.com/3d-models/lp-americans-house-mobile-bdd2465e5ff54fe09701cd55b9543b25",
      "title": "LP Americans House Mobile"
    },
    "generator": "Sketchfab-15.25.0",
    "version": "2.0"
  },
  "bufferViews": [
    {
      "buffer": 0,
      "byteLength": 72792,
      "name": "floatBufferViews",
      "target": 34963
    },
    {
      "buffer": 0,
      "byteLength": 89320,
      "byteOffset": 72792,
      "byteStride": 8,
      "name": "floatBufferViews",
      "target": 34962
    },
    {
      "buffer": 0,
      "byteLength": 198360,
      "byteOffset": 162112,
      "byteStride": 12,
      "name": "floatBufferViews",
      "target": 34962
    },
    {
      "buffer": 0,
      "byteLength": 130272,
      "byteOffset": 360472,
      "byteStride": 16,
      "name": "floatBufferViews",
      "target": 34962
    }
  ],
  "buffers": [
    {
      "byteLength": 490744,
      "uri": "scene.bin"
    }
  ],
  "extensionsUsed": [
    "KHR_materials_specular"
  ],
  "images": [
    {
      "uri": "textures/MHousRoof_baseColor.png"
    },
    {
      "uri": "textures/MHousRoof_metallicRoughness.png"
    },
    {
      "uri": "textures/MHousRoof_normal.png"
    },
    {
      "uri": "textures/MHouseWall_baseColor.png"
    },
    {
      "uri": "textures/MHouseWall_metallicRoughness.png"
    },
    {
      "uri": "textures/MHouseWall_normal.png"
    },
    {
      "uri": "textures/MHousWood_baseColor.png"
    },
    {
      "uri": "textures/MHousWood_metallicRoughness.png"
    },
    {
      "uri": "textures/MHousWood_normal.png"
    },
    {
      "uri": "textures/MHouseWindowsDoorProps_baseColor.png"
    },
    {
      "uri": "textures/MHouseWindowsDoorProps_metallicRoughness.png"
    },
    {
      "uri": "textures/MHouseWindowsDoorProps_normal.png"
    },
    {
      "uri": "textures/MHouseWoodFloor_baseColor.png"
    },
    {
      "uri": "textures/MHouseWoodFloor_metallicRoughness.png"
    },
    {
      "uri": "textures/MHouseWoodFloor_normal.png"
    },
    {
      "uri": "textures/MHouseWoodGrate_baseColor.png"
    },
    {
      "uri": "textures/MHouseWoodGrate_metallicRoughness.png"
    },
    {
      "uri": "textures/MHouseWoodGrate_normal.png"
    },
    {
      "uri": "textures/MHouseDecales_baseColor.png"
    },
    {
      "uri": "textures/MHouseDecales_metallicRoughness.png"
    }
  ],
  "materials": [
    {
      "doubleSided": true,
      "name": "MHousRoof",
      "normalTexture": {
        "index": 2
      },
      "pbrMetallicRoughness": {
        "baseColorTexture": {
          "index": 0
        },
        "metallicFactor": 0.0,
        "metallicRoughnessTexture": {
          "index": 1
        }
      }
    },
    {
      "doubleSided": true,
      "name": "MHouseWall",
      "normalTexture": {
        "index": 5
      },
      "occlusionTexture": {
        "index": 4
      },
      "pbrMetallicRoughness": {
        "baseColorTexture": {
          "index": 3
        },
        "metallicFactor": 0.0,
        "metallicRoughnessTexture": {
          "index": 4
        }
      }
    },
    {
      "doubleSided": true,
      "name": "MHousWood",
      "normalTexture": {
        "index": 8
      },
      "occlusionTexture": {
        "index": 7,
        "strength": 0.38247735612146627
      },
      "pbrMetallicRoughness": {
        "baseColorTexture": {
          "index": 6
        },
        "metallicFactor": 0.0,
        "metallicRoughnessTexture": {
          "index": 7
        }
      }
    },
    {
      "doubleSided": true,
      "name": "MHouseWindowsDoorProps",
      "normalTexture": {
        "index": 11
      },
      "occlusionTexture": {
        "index": 10
      },
      "pbrMetallicRoughness": {
        "baseColorTexture": {
          "index": 9
        },
        "metallicRoughnessTexture": {
          "index": 10
        }
      }
    },
    {
      "doubleSided": true,
      "name": "MHouseWoodFloor",
      "normalTexture": {
        "index": 14
      },
      "occlusionTexture": {
        "index": 13
      },
      "pbrMetallicRoughness": {
        "baseColorTexture": {
          "index": 12
        },
        "metallicFactor": 0.0,
        "metallicRoughnessTexture": {
          "index": 13
        }
      }
    },
    {
      "doubleSided": true,
      "extensions": {
        "KHR_materials_specular": {
          "specularColorFactor": [
            1.0,
            1.0,
            1.0
          ],
          "specularFactor": 0.48000146286160106
        }
      },
      "name": "MHouseWoodGrate",
      "normalTexture": {
        "index": 17
      },
      "occlusionTexture": {
        "index": 16
      },
      "pbrMetallicRoughness": {
        "baseColorTexture": {
          "index": 15
        },
        "metallicRoughnessTexture": {
          "index": 16
        },
        "roughnessFactor": 0.7150467506186686
      }
    },
    {
      "alphaMode": "BLEND",
      "doubleSided": true,
      "name": "MHouseDecales",
      "pbrMetallicRoughness": {
        "baseColorFactor": [
          1.0,
          1.0,
          1.0,
          0.6567639063280954
        ],
        "baseColorTexture": {
          "index": 18
        },
        "metallicFactor": 0.0,
        "metallicRoughnessTexture": {
          "index": 19
        }
      }
    }
  ],
  "meshes": [
    {
      "name": "LPHouse_MHousRoof_0",
      "primitives": [
        {
          "attributes": {
            "NORMAL": 1,
            "POSITION": 0,
            "TANGENT": 2,
            "TEXCOORD_0": 3
          },
          "indices": 4,
          "material": 0,
          "mode": 4
        }
      ]
    },
    {
      "name": "LPHouse_MHouseWall_0",
      "primitives": [
        {
          "attributes": {
            "NORMAL": 6,
            "POSITION": 5,
            "TANGENT": 7,
            "TEXCOORD_0": 8
          },
          "indices": 9,
          "material": 1,
          "mode": 4
        }
      ]
    },
    {
      "name": "LPHouse_MHousWood_0",
      "primitives": [
        {
          "attributes": {
            "NORMAL": 11,
            "POSITION": 10,
            "TANGENT": 12,
            "TEXCOORD_0": 13,
            "TEXCOORD_1": 14
          },
          "indices": 15,
          "material": 2,
          "mode": 4
        }
      ]
    },
    {
      "name": "LPHouse_MHouseWindowsDoorProps_0",
      "primitives": [
        {
          "attributes": {
            "NORMAL": 17,
            "POSITION": 16,
            "TANGENT": 18,
            "TEXCOORD_0": 19
          },
          "indices": 20,
          "material": 3,
          "mode": 4
        }
      ]
    },
    {
      "name": "LPHouse_MHouseWoodFloor_0",
      "primitives": [
        {
          "attributes": {
            "NORMAL": 22,
            "POSITION": 21,
            "TANGENT": 23,
            "TEXCOORD_0": 24
          },
          "indices": 25,
          "material": 4,
          "mode": 4
        }
      ]
    },
    {
      "name": "LPHouse_MHouseWoodGrate_0",
      "primitives": [
        {
          "attributes": {
            "NORMAL": 27,
            "POSITION": 26,
            "TANGENT": 28,
            "TEXCOORD_0": 29
          },
          "indices": 30,
          "material": 5,
          "mode": 4
        }
      ]
    },
    {
      "name": "LPHouseDecals_MHouseDecales_0",
      "primitives": [
        {
          "attributes": {
            "NORMAL": 32,
            "POSITION": 31,
            "TEXCOORD_0": 33
          },
          "indices": 34,
          "material": 6,
          "mode": 4
        }
      ]
    }
  ],
  "nodes": [
    {
      "children": [
        1
      ],
      "matrix": [
        0.7009771466255188,
        0.0,
        0.0,
        0.0,
        0.0,
        1.5564819358393906e-16,
        -0.7009771466255188,
        0.0,
        0.0,
        0.7009771466255188,
        1.5564819358393906e-16,
        0.0,
        0.0,
        0.0,
        0.0,
        1.0
      ],
      "name": "Sketchfab_model"
    },
    {
      "children": [
        2
      ],
      "matrix": [
        0.009999999776482582,
        0.0,
        0.0,
        0.0,
        0.0,
        0.0,
        0.009999999776482582,
        0.0,
        0.0,
        -0.009999999776482582,
        0.0,
        0.0,
        0.0,
        0.0,
        0.0,
        1.0
      ],
      "name": "97ce86eb70db47a6ab4a5033a793ac08.fbx"
    },
    {
      "children": [
        3,
        10
      ],
      "name": "RootNode"
    },
    {
      "children": [
        4,
        5,
        6,
        7,
        8,
        9
      ],
      "name": "LPHouse"
    },
    {
      "mesh": 0,
      "name": "LPHouse_MHousRoof_0"
    },
    {
      "mesh": 1,
      "name": "LPHouse_MHouseWall_0"
    },
    {
      "mesh": 2,
      "name": "LPHouse_MHousWood_0"
    },
    {
      "mesh": 3,
      "name": "LPHouse_MHouseWindowsDoorProps_0"
    },
    {
      "mesh": 4,
      "name": "LPHouse_MHouseWoodFloor_0"
    },
    {
      "mesh": 5,
      "name": "LPHouse_MHouseWoodGrate_0"
    },
    {
      "children": [
        11
      ],
      "name": "LPHouseDecals"
    },
    {
      "mesh": 6,
      "name": "LPHouseDecals_MHouseDecales_0"
    }
  ],
  "samplers": [
    {
      "magFilter": 9729,
      "minFilter": 9987,
      "wrapS": 10497,
      "wrapT": 10497
    }
  ],
  "scene": 0,
  "scenes": [
    {
      "name": "Sketchfab_Scene",
      "nodes": [
        0
      ]
    }
  ],
  "textures": [
    {
      "sampler": 0,
      "source": 0
    },
    {
      "sampler": 0,
      "source": 1
    },
    {
      "sampler": 0,
      "source": 2
    },
    {
      "sampler": 0,
      "source": 3
    },
    {
      "sampler": 0,
      "source": 4
    },
    {
      "sampler": 0,
      "source": 5
    },
    {
      "sampler": 0,
      "source": 6
    },
    {
      "sampler": 0,
      "source": 7
    },
    {
      "sampler": 0,
      "source": 8
    },
    {
      "sampler": 0,
      "source": 9
    },
    {
      "sampler": 0,
      "source": 10
    },
    {
      "sampler": 0,
      "source": 11
    },
    {
      "sampler": 0,
      "source": 12
    },
    {
      "sampler": 0,
      "source": 13
    },
    {
      "sampler": 0,
      "source": 14
    },
    {
      "sampler": 0,
      "source": 15
    },
    {
      "sampler": 0,
      "source": 16
    },
    {
      "sampler": 0,
      "source": 17
    },
    {
      "sampler": 0,
      "source": 18
    },
    {
      "sampler": 0,
      "source": 19
    }
  ]
}
